<svg xmlns="http://www.w3.org/2000/svg" width="1200" height="900" viewBox="0 0 1200 900" role="img" aria-labelledby="t d">
  <title id="t">Attendance Management</title>
  <desc id="d">Attendance dashboard and daily status illustration.</desc>
  <defs>
    <linearGradient id="bg" x1="0" y1="0" x2="1" y2="1">
      <stop offset="0%" stop-color="#f0fdf4"/>
      <stop offset="100%" stop-color="#dcfce7"/>
    </linearGradient>
  </defs>
  <rect width="1200" height="900" fill="url(#bg)"/>
  <text x="110" y="72" fill="#166534" font-family="Segoe UI, Arial, sans-serif" font-size="52" font-weight="700">Attendance Management</text>
  <rect x="90" y="110" width="1020" height="700" rx="30" fill="#ffffff" stroke="#bbf7d0"/>
  <rect x="130" y="170" width="940" height="520" rx="24" fill="#f7fff9" stroke="#d2f7df"/>
  <rect x="170" y="220" width="860" height="58" rx="14" fill="#eafff0"/>
  <rect x="170" y="304" width="860" height="58" rx="14" fill="#eafff0"/>
  <rect x="170" y="388" width="860" height="58" rx="14" fill="#eafff0"/>
  <rect x="170" y="472" width="860" height="58" rx="14" fill="#eafff0"/>
  <rect x="170" y="556" width="860" height="58" rx="14" fill="#eafff0"/>
  <circle cx="930" cy="249" r="14" fill="#22c55e"/>
  <circle cx="930" cy="333" r="14" fill="#22c55e"/>
  <circle cx="930" cy="417" r="14" fill="#f59e0b"/>
  <circle cx="930" cy="501" r="14" fill="#22c55e"/>
  <circle cx="930" cy="585" r="14" fill="#ef4444"/>
  <rect x="170" y="720" width="320" height="52" rx="14" fill="#dcfce7"/>
  <rect x="510" y="720" width="320" height="52" rx="14" fill="#fee2e2"/>
</svg>