<svg xmlns="http://www.w3.org/2000/svg" width="1200" height="900" viewBox="0 0 1200 900" role="img" aria-labelledby="t d">
  <title id="t">Exam Management</title>
  <desc id="d">Exam scheduling and performance review illustration.</desc>
  <defs>
    <linearGradient id="bg" x1="0" y1="0" x2="1" y2="1">
      <stop offset="0%" stop-color="#eef2ff"/>
      <stop offset="100%" stop-color="#e0e7ff"/>
    </linearGradient>
  </defs>
  <rect width="1200" height="900" fill="url(#bg)"/>
  <text x="110" y="72" fill="#3730a3" font-family="Segoe UI, Arial, sans-serif" font-size="52" font-weight="700">Exam Management</text>
  <rect x="90" y="110" width="1020" height="700" rx="30" fill="#ffffff" stroke="#c7d2fe"/>
  <rect x="130" y="170" width="620" height="520" rx="24" fill="#f4f6ff" stroke="#d6defe"/>
  <rect x="780" y="170" width="290" height="160" rx="20" fill="#dcfce7" stroke="#bbf7d0"/>
  <rect x="780" y="350" width="290" height="160" rx="20" fill="#fef3c7" stroke="#fde68a"/>
  <rect x="780" y="530" width="290" height="160" rx="20" fill="#fee2e2" stroke="#fecaca"/>
  <rect x="170" y="230" width="540" height="24" rx="12" fill="#3730a3" opacity="0.2"/>
  <rect x="170" y="280" width="540" height="16" rx="8" fill="#3730a3" opacity="0.1"/>
  <rect x="170" y="320" width="540" height="16" rx="8" fill="#3730a3" opacity="0.1"/>
  <rect x="170" y="360" width="540" height="16" rx="8" fill="#3730a3" opacity="0.1"/>
  <rect x="170" y="400" width="540" height="16" rx="8" fill="#3730a3" opacity="0.1"/>
  <rect x="170" y="440" width="540" height="16" rx="8" fill="#3730a3" opacity="0.1"/>
  <rect x="170" y="480" width="540" height="16" rx="8" fill="#3730a3" opacity="0.1"/>
  <rect x="170" y="520" width="540" height="16" rx="8" fill="#3730a3" opacity="0.1"/>
</svg>