<svg xmlns="http://www.w3.org/2000/svg" width="1200" height="900" viewBox="0 0 1200 900" role="img" aria-labelledby="t d">
  <title id="t">Transport Management</title>
  <desc id="d">School transport routes and tracking illustration.</desc>
  <defs>
    <linearGradient id="bg" x1="0" y1="0" x2="1" y2="1">
      <stop offset="0%" stop-color="#ecfeff"/>
      <stop offset="100%" stop-color="#cffafe"/>
    </linearGradient>
  </defs>
  <rect width="1200" height="900" fill="url(#bg)"/>
  <text x="110" y="72" fill="#155e75" font-family="Segoe UI, Arial, sans-serif" font-size="52" font-weight="700">Transport Management</text>
  <rect x="90" y="110" width="1020" height="700" rx="30" fill="#ffffff" stroke="#a5f3fc"/>
  <rect x="130" y="170" width="940" height="470" rx="24" fill="#f0fdff" stroke="#bae6fd"/>
  <path d="M190 560 C340 430, 520 660, 690 520 S1000 430, 1030 560" fill="none" stroke="#0ea5e9" stroke-width="14" stroke-linecap="round" stroke-dasharray="14 14"/>
  <circle cx="250" cy="535" r="24" fill="#22c55e"/>
  <circle cx="560" cy="560" r="24" fill="#22c55e"/>
  <circle cx="930" cy="520" r="24" fill="#22c55e"/>
  <rect x="250" y="690" width="660" height="70" rx="18" fill="#e0f2fe" stroke="#bae6fd"/>
  <rect x="280" y="710" width="160" height="26" rx="13" fill="#0284c7" opacity="0.25"/>
  <rect x="470" y="710" width="160" height="26" rx="13" fill="#0284c7" opacity="0.25"/>
  <rect x="660" y="710" width="160" height="26" rx="13" fill="#0284c7" opacity="0.25"/>
</svg>